<svg xmlns="http://www.w3.org/2000/svg" x="0px" y="0px" viewBox="0 0 24 24" style="enable-background:new 0 0 24 24;" xml:space="preserve">
<style type="text/css">
	.st0{fill-rule:evenodd;clip-rule:evenodd;fill:#B3B3B3;}
</style>
<g>
	<g>
		<path class="st0" d="M17.4,12.5c0,0-0.4-4.7-5.3-4.7c-4.9,0-5.3,4.7-5.3,4.7v4.4h10.6V12.5z M12,6.5c0.5,0,0.9-0.4,0.9-0.9V3.9
			C12.9,3.4,12.5,3,12,3c-0.5,0-0.9,0.4-0.9,0.9v1.7C11.2,6.1,11.6,6.5,12,6.5z M6.4,9c0.4-0.4,0.4-1,0-1.3L5.3,6.5
			c-0.4-0.4-1-0.4-1.3,0c-0.4,0.4-0.4,1,0,1.3L5.1,9C5.5,9.4,6.1,9.4,6.4,9z M20.1,6.6c-0.4-0.4-1-0.4-1.3,0l-1.1,1.1
			c-0.4,0.4-0.4,1,0,1.3c0.4,0.4,1,0.4,1.3,0l1.1-1.1C20.5,7.5,20.5,6.9,20.1,6.6z M17.4,18.4H6.7c-0.8,0-1.5,0.7-1.5,1.5
			s0.7,1.5,1.5,1.5h10.6c0.8,0,1.5-0.7,1.5-1.5S18.2,18.4,17.4,18.4z"/>
	</g>
</g>
</svg>
